<svg width="1155" height="469" viewBox="0 0 1155 469" fill="none" xmlns="http://www.w3.org/2000/svg">
<rect x="0.15625" width="1154" height="469" rx="8" fill="#FFBC2F"/>
<g clip-path="url(#clip0_1425_16625)">
<path d="M606.443 264.85C589.063 264.85 578.594 252.881 578.594 236.038C578.594 219.195 589.063 207.227 606.443 207.227C623.824 207.227 634.199 219.195 634.199 236.038C634.199 252.881 623.729 264.85 606.443 264.85ZM606.443 252.097C613.561 252.097 617.93 246.485 617.93 235.999C617.93 225.512 613.561 219.901 606.443 219.901C599.326 219.901 594.901 225.551 594.901 236.038C594.901 246.525 599.232 252.136 606.443 252.136V252.097Z" fill="#E83181"/>
<path d="M695.125 236.454C695.125 253.993 686.411 264.85 672.803 264.85C665.387 264.85 659.992 260.673 657.971 257.85H657.767V263.177H641.805V188.538H657.814V215.058H658.045C660.048 212.235 665.461 208.059 672.877 208.059C686.439 208.059 695.125 218.916 695.125 236.454ZM679.107 236.454C679.107 226.012 675.102 220.589 668.594 220.589C662.087 220.589 658.092 226.012 658.092 236.454C658.092 246.896 662.096 252.32 668.594 252.32C675.093 252.32 679.134 246.896 679.134 236.454H679.107Z" fill="#E83181"/>
<path d="M748.457 247.192C748.457 258.63 740.166 264.85 725.805 264.85C707.295 264.85 700.213 256.158 699.707 245.151H714.873C715.379 250.547 718.827 253.196 725.178 253.196C729.731 253.196 732.25 251.606 732.25 248.536C732.25 243.876 727.398 243.238 719.21 241.335C710.405 239.373 700.7 235.93 700.7 224.6C700.7 214.79 708.794 207.227 723.351 207.227C739.941 207.227 746.414 216.055 746.92 225.551H731.735C731.229 221.215 729 218.881 723.744 218.881C719.192 218.881 716.859 220.578 716.859 223.226C716.859 227.033 720.1 227.15 728.101 228.946C738.302 231.3 748.457 234.9 748.457 247.192Z" fill="white"/>
<path d="M507.681 246.734H524.427C521.512 257.644 513.056 264.85 498.418 264.85C480.515 264.85 469.668 252.99 469.668 236.038C469.668 219.516 480.301 207.227 497.466 207.227C515.932 207.227 525.273 220.787 525.273 240.467H486.521C486.521 248.093 492.101 252.12 498.097 252.12C503.89 252.14 506.631 249.403 507.681 246.734ZM486.521 230.211H508.419C508.419 222.693 503.89 218.88 497.466 218.88C491.041 218.88 486.521 222.693 486.521 230.211Z" fill="white"/>
<path d="M548.875 235.887L540.478 209.563H522.977L541.094 255.505C541.094 255.505 545.258 246.053 548.875 235.887Z" fill="white"/>
<path d="M561.729 209.563L554.995 232.601C553.365 239.205 547.727 259.978 539.751 266.122C537.81 268.253 534.307 268.627 530.047 267.677H529.844V280.156C532.916 280.83 536.051 281.181 539.198 281.202C550.551 281.202 555.596 277.449 560.225 263.827L578.594 209.563H561.729Z" fill="#E83181"/>
<path d="M422.908 188.538V217.517H447.873V188.538H464.336V262.513H447.873V232.739H422.908V262.513H406.445V188.538H422.908Z" fill="white"/>
<path d="M561.719 195.555C561.719 190.993 565.364 188.538 570.048 188.538C574.733 188.538 578.436 191.011 578.436 195.555C578.436 200.099 574.743 202.59 570.048 202.59C565.355 202.59 561.719 200.199 561.719 195.555Z" fill="#E83181"/>
</g>
<defs>
<clipPath id="clip0_1425_16625">
<rect width="342.144" height="92.664" fill="white" transform="translate(406.449 188.538)"/>
</clipPath>
</defs>
</svg>
